<svg width="999" height="192" fill="none" xmlns="http://www.w3.org/2000/svg"><path d="M966.919 51.3609c3.381-5.5093 7.764-9.829 13.148-12.9593 5.509-3.1303 11.769-4.6954 18.781-4.6954v27.609h-6.949c-8.264 0-14.524 1.9407-18.782 5.8223-4.132 3.8815-6.198 10.6429-6.198 20.2842v51.8373h-26.294V35.2087h26.294v16.1522ZM812.209 86.8582c0-10.5177 2.066-19.8459 6.198-27.9846 4.257-8.1387 9.954-14.3993 17.091-18.7817 7.262-4.3823 15.338-6.5735 24.228-6.5735 7.763 0 14.525 1.5651 20.284 4.6954 5.885 3.1303 10.581 7.0744 14.087 11.8324V35.2087h26.482V139.259h-26.482v-15.213c-3.381 4.883-8.076 8.952-14.087 12.208-5.884 3.13-12.708 4.695-20.472 4.695-8.764 0-16.778-2.253-24.04-6.761-7.137-4.508-12.834-10.831-17.091-18.97-4.132-8.263-6.198-17.7169-6.198-28.3598Zm81.888.3756c0-6.3857-1.252-11.8324-3.757-16.34-2.504-4.6328-5.885-8.1387-10.142-10.5177-4.257-2.5042-8.827-3.7563-13.71-3.7563-4.884 0-9.391 1.1895-13.523 3.5685-4.132 2.379-7.513 5.8849-10.142 10.5177-2.504 4.5076-3.757 9.8917-3.757 16.1522 0 6.2606 1.253 11.7698 3.757 16.5278 2.629 4.633 6.01 8.201 10.142 10.706 4.257 2.504 8.765 3.756 13.523 3.756 4.883 0 9.453-1.19 13.71-3.569 4.257-2.504 7.638-6.01 10.142-10.517 2.505-4.6331 3.757-10.1424 3.757-16.5282ZM774.965 51.3609c3.381-5.5093 7.763-9.829 13.147-12.9593 5.51-3.1303 11.77-4.6954 18.782-4.6954v27.609h-6.949c-8.264 0-14.525 1.9407-18.782 5.8223-4.132 3.8815-6.198 10.6429-6.198 20.2842v51.8373h-26.294V35.2087h26.294v16.1522ZM653.31 50.4219c3.381-5.0085 8.014-9.0778 13.899-12.2081 6.01-3.1303 12.834-4.6954 20.472-4.6954 8.89 0 16.903 2.1912 24.04 6.5736 7.262 4.3823 12.959 10.6429 17.091 18.7816 4.258 8.0135 6.386 17.3417 6.386 27.9846 0 10.643-2.128 20.0968-6.386 28.3598-4.132 8.139-9.829 14.462-17.091 18.97-7.137 4.508-15.15 6.761-24.04 6.761-7.763 0-14.587-1.502-20.472-4.507-5.76-3.131-10.393-7.137-13.899-12.021v14.838h-26.294V.274902h26.294V50.4219Zm55.03 36.4363c0-6.2605-1.314-11.6446-3.944-16.1522-2.504-4.6328-5.885-8.1387-10.142-10.5177-4.132-2.379-8.639-3.5685-13.523-3.5685-4.758 0-9.265 1.2521-13.522 3.7563-4.132 2.379-7.513 5.8849-10.142 10.5177-2.505 4.6328-3.757 10.0795-3.757 16.3401 0 6.2605 1.252 11.7072 3.757 16.3401 2.629 4.633 6.01 8.201 10.142 10.705 4.257 2.379 8.764 3.569 13.522 3.569 4.884 0 9.391-1.252 13.523-3.756 4.257-2.505 7.638-6.073 10.142-10.706 2.63-4.6327 3.944-10.142 3.944-16.5278ZM565.064 33.7062c12.772 0 23.039 3.9441 30.802 11.8324 7.889 7.7631 11.833 18.6564 11.833 32.6801v61.0403h-26.295V81.7872c0-8.1387-2.065-14.3367-6.197-18.5938-4.132-4.3824-9.767-6.5736-16.904-6.5736-7.137 0-12.834 2.1912-17.091 6.5736-4.132 4.2571-6.198 10.4551-6.198 18.5938v57.4718H508.72V81.7872c0-8.1387-2.066-14.3367-6.198-18.5938-4.132-4.3824-9.767-6.5736-16.904-6.5736-7.262 0-13.022 2.1912-17.279 6.5736-4.132 4.2571-6.198 10.4551-6.198 18.5938v57.4718h-26.294V35.2087h26.294v12.5837c3.381-4.3824 7.701-7.8257 12.959-10.3299 5.385-2.5042 11.269-3.7563 17.655-3.7563 8.139 0 15.401 1.7529 21.787 5.2588 6.386 3.3807 11.331 8.264 14.837 14.6497 3.381-6.0101 8.264-10.8307 14.65-14.4619 6.511-3.6311 13.523-5.4466 21.035-5.4466ZM422.289 84.9801c0 3.7563-.251 7.137-.751 10.142h-76.066c.626 7.5129 3.255 13.3979 7.888 17.6549 4.633 4.257 10.33 6.386 17.092 6.386 9.766 0 16.715-4.195 20.847-12.584h28.36c-3.005 10.017-8.764 18.281-17.279 24.792-8.514 6.385-18.969 9.578-31.365 9.578-10.017 0-19.032-2.191-27.046-6.573-7.888-4.508-14.086-10.831-18.593-18.97-4.383-8.138-6.574-17.5292-6.574-28.1722 0-10.7681 2.191-20.2215 6.574-28.3602 4.382-8.1387 10.517-14.3993 18.406-18.7817 7.888-4.3823 16.966-6.5735 27.233-6.5735 9.892 0 18.719 2.1286 26.482 6.3857 7.888 4.2572 13.961 10.3299 18.218 18.2182 4.383 7.7631 6.574 16.7157 6.574 26.8578Zm-27.233-7.5127c-.126-6.7614-2.567-12.1455-7.325-16.1522-4.758-4.132-10.581-6.1979-17.467-6.1979-6.511 0-12.021 2.0033-16.528 6.0101-4.382 3.8815-7.075 9.3282-8.076 16.34h49.396ZM271.287 118.411h43.198v20.848h-69.492V8.16315h26.294V118.411Z" fill="#003459"/><path d="M177.991 140.574c-10.643 0-20.221-2.192-28.736-6.574-8.514-4.382-15.213-10.643-20.096-18.782-4.758-8.263-7.137-17.9047-7.137-28.9233 0-11.0185 2.379-20.5972 7.137-28.7359 4.883-8.2639 11.582-14.587 20.096-18.9694 8.515-4.3824 18.093-6.5736 28.736-6.5736s20.222 2.1912 28.736 6.5736c8.514 4.3824 15.151 10.7055 19.909 18.9694 4.883 8.1387 7.324 17.7174 7.324 28.7359 0 11.0186-2.441 20.6603-7.324 28.9233-4.758 8.139-11.395 14.4-19.909 18.782s-18.093 6.574-28.736 6.574Zm0-36.061c3.882 0 7.137-1.503 9.767-4.508 2.629-3.1299 3.944-7.7001 3.944-13.7103 0-6.0101-1.315-10.5177-3.944-13.5227-2.63-3.1303-5.885-4.6954-9.767-4.6954-3.881 0-7.137 1.5651-9.766 4.6954-2.63 3.005-3.944 7.5126-3.944 13.5227 0 6.0102 1.252 10.5804 3.756 13.7103 2.629 3.005 5.947 4.508 9.954 4.508ZM43.7612 32.0158c6.8866 0 12.8341 1.4399 17.8426 4.3198 5.0084 2.7546 8.8273 6.5736 11.4568 11.4568V33.3305h41.5074V137.381c0 9.891-1.816 18.907-5.447 27.045-3.631 8.139-9.5157 14.65-17.6544 19.533-8.0135 4.883-18.3434 7.325-30.9897 7.325-17.0287 0-30.5515-4.007-40.5684-12.02-9.8916-7.888-15.52612-18.657-16.90344-32.305H43.949c1.1269 5.51 5.6345 8.264 13.5228 8.264 4.8832 0 8.7022-1.252 11.4568-3.756 2.7546-2.504 4.132-7.2 4.132-14.086v-12.584c-2.6295 4.883-6.4484 8.765-11.4568 11.645-5.0085 2.754-10.956 4.132-17.8426 4.132-8.2639 0-15.714-2.129-22.3501-6.386-6.6362-4.382-11.89507-10.643-15.77661-18.782C1.87816 107.142 0 97.4385 0 86.2947 0 75.151 1.87816 65.5097 5.63449 57.371c3.88154-8.2639 9.14041-14.5244 15.77661-18.7816 6.6361-4.3824 14.0862-6.5736 22.3501-6.5736Zm29.2994 54.2789c0-5.6345-1.44-10.0168-4.3198-13.1471-2.8799-3.1303-6.5736-4.6954-11.0812-4.6954-4.5076 0-8.2013 1.5651-11.0811 4.6954-2.8799 3.1303-4.3198 7.5126-4.3198 13.1471s1.4399 10.0169 4.3198 13.1472c2.8798 3.1301 6.5735 4.6951 11.0811 4.6951 4.5076 0 8.2013-1.565 11.0812-4.6951 2.8798-3.1303 4.3198-7.5127 4.3198-13.1472Z" fill="#00A6CB"/></svg>