<svg width="496" height="1080" fill="none" xmlns="http://www.w3.org/2000/svg"><path d="M46.065 747.178V0h52.611v695.82H221.1v51.358H46.065Z" fill="#53C2B3"/><path d="M192.738 650.471c28.846-9.746 60.162-10.893 93.95-3.439 33.788 7.453 62.642 21.873 86.561 43.26 23.556 20.832 40.063 47.217 49.521 79.153 9.094 31.383 9.555 65.6 1.381 102.65-8.173 37.05-22.986 67.897-44.44 92.541-21.917 24.541-47.992 41.534-78.226 50.974-30.597 8.88-62.79 9.6-96.578 2.15-47.211-10.42-83.05-32.774-107.518-67.075-24.468-34.3-34.065-75.507-28.79-123.621 2.31-21.081 11.063-50.153 11.063-50.153l-67.344-14.856c-4.388 12.399-8.753 29.072-11.064 50.153-3.6 32.844.352 75.415 14.466 112.643 14.215 36.777 36.586 68.483 67.113 95.119 30.627 26.18 67.232 43.97 109.814 53.36 44.897 9.91 88.101 8.78 129.615-3.39 41.613-12.61 77.333-34.82 107.16-66.62 29.365-31.901 49.13-70.895 59.297-116.982 10.167-46.086 8.641-89.777-4.576-131.072-13.581-41.849-36.643-77.024-69.186-105.524-32.443-28.953-71.112-48.381-116.009-58.285-51.376-11.334-99.476-8.915-144.301 7.257-14.036 4.981-27.243 11.169-39.621 18.564l35.117 54.996c12.846-9.507 27.044-16.775 42.595-21.803Z" fill="#00A6CB"/></svg>