<svg xmlns="http://www.w3.org/2000/svg" width="45" height="44" fill="none"><path fill="#FFFBF8" d="M30.802 7.179c-2.324-1.403-5.029-2.104-8.114-2.104-3.085 0-5.875.7-8.368 2.104-2.451 1.361-4.395 3.341-5.832 5.94-1.395 2.559-2.092 5.529-2.092 8.912 0 3.383.697 6.353 2.092 8.911 1.437 2.558 3.38 4.538 5.832 5.941 2.493 1.362 5.283 2.042 8.368 2.042 4.31 0 7.86-1.258 10.65-3.774 2.79-2.517 4.417-5.92 4.881-10.212.204-1.88 0-4.579 0-4.579h6.15c.144 1.164.203 2.7 0 4.58-.318 2.928-1.48 6.56-3.424 9.53-1.944 2.929-4.5 5.26-7.67 6.993C30.105 43.154 26.576 44 22.688 44c-4.1 0-7.84-.928-11.22-2.785-3.382-1.898-6.066-4.517-8.052-7.86C1.472 30.016.5 26.24.5 22.032s.972-7.983 2.916-11.325c1.986-3.383 4.67-6.003 8.051-7.86C14.848.95 18.588 0 22.687 0c4.692 0 8.834 1.135 12.426 3.404a19.736 19.736 0 0 1 3.093 2.377l-4.114 4.114a13.126 13.126 0 0 0-3.29-2.716Z"/><path fill="#fff" d="M20.248 12.138h5.486v7.724h7.68v5.518h-7.68v7.724h-5.486V25.38h-7.68v-5.518h7.68v-7.724Z"/></svg>