<svg width="503" height="632" fill="none" xmlns="http://www.w3.org/2000/svg"><path d="M38.365 47.6118V21.7526h8.9558v17.1166h20.8398v8.7426H38.365Z" fill="#00A6CB"/><path d="M57.85 13.7046c-4.4376-2.6779-9.6013-4.01683-15.4912-4.01683-5.8899 0-11.215 1.33893-15.9753 4.01683-4.6797 2.5992-8.3911 6.3798-11.1343 11.3418-2.6626 4.8833-3.9939 10.5542-3.9939 17.0127 0 6.4585 1.3313 12.1294 3.9939 17.0126 2.7432 4.8833 6.4546 8.6639 11.1343 11.3418 4.7603 2.5992 10.0854 3.8987 15.9753 3.8987 8.2297 0 15.0071-2.4022 20.3322-7.2067 5.3251-4.8045 8.4314-11.3024 9.3189-19.4937.3889-3.589 0-8.7426 0-8.7426h11.7395c.2746 2.222.3888 5.1536 0 8.7426-.6059 5.5916-2.824 12.5232-6.5354 18.1941-3.7114 5.5921-8.5928 10.0422-14.644 13.3502C56.5187 82.3854 49.7816 84 42.3588 84c-7.8263 0-14.9668-1.7721-21.4215-5.3165-6.4546-3.623-11.57803-8.6244-15.37015-15.0042C1.85572 57.2996 0 50.0928 0 42.0591c0-8.0338 1.85572-15.2405 5.56715-21.6203C9.35927 13.9803 14.4827 8.9789 20.9373 5.4346 27.392 1.81153 34.5325 0 42.3588 0c8.9558 0 16.8628 2.16596 23.7209 6.49789 2.1506 1.34267 4.1192 2.85558 5.9055 4.53871l-7.8543 7.8543c-1.7867-2.0515-3.8803-3.7802-6.2809-5.1863Z" fill="#00A6CB"/><path d="M489.627 24.4593c1.341-2.1756 3.078-3.8814 5.213-5.1175 2.184-1.2362 4.666-1.8542 7.446-1.8542v10.9026h-2.755c-3.277 0-5.759.7664-7.446 2.2992-1.639 1.5328-2.458 4.2029-2.458 8.0101v20.4703h-10.424V18.0809h10.424v6.3784ZM428.291 38.477c0-4.1534.819-7.837 2.457-11.051 1.688-3.2139 3.947-5.6862 6.776-7.4167 2.88-1.7306 6.081-2.5959 9.606-2.5959 3.078 0 5.758.6181 8.042 1.8542 2.333 1.2361 4.194 2.7936 5.584 4.6726v-5.8593h10.499v41.0889h-10.499v-6.0075c-1.34 1.9283-3.202 3.5353-5.584 4.8209-2.333 1.2361-5.039 1.8541-8.117 1.8541-3.474 0-6.651-.89-9.531-2.67-2.829-1.78-5.088-4.277-6.776-7.4909-1.638-3.2634-2.457-6.9965-2.457-11.1994Zm32.465.1484c0-2.5217-.496-4.6726-1.489-6.4526-.993-1.8295-2.333-3.214-4.021-4.1534-1.688-.9889-3.5-1.4834-5.436-1.4834s-3.723.4698-5.361 1.4092c-1.638.9395-2.978 2.3239-4.021 4.1534-.992 1.78-1.489 3.9062-1.489 6.3784 0 2.4723.497 4.6479 1.489 6.5268 1.043 1.8295 2.383 3.2387 4.021 4.2276 1.688.9889 3.475 1.4833 5.361 1.4833 1.936 0 3.748-.4697 5.436-1.4092 1.688-.9889 3.028-2.3733 4.021-4.1534.993-1.8294 1.489-4.005 1.489-6.5267ZM413.526 24.4593c1.34-2.1756 3.078-3.8814 5.212-5.1175 2.184-1.2362 4.666-1.8542 7.446-1.8542v10.9026h-2.755c-3.276 0-5.758.7664-7.446 2.2992-1.638 1.5328-2.457 4.2029-2.457 8.0101v20.4703h-10.425V18.0809h10.425v6.3784ZM365.295 24.0885c1.34-1.9778 3.177-3.5848 5.51-4.8209 2.383-1.2361 5.088-1.8542 8.116-1.8542 3.525 0 6.702.8653 9.531 2.5959 2.879 1.7306 5.138 4.2028 6.776 7.4167 1.688 3.1645 2.532 6.8482 2.532 11.051 0 4.2029-.844 7.936-2.532 11.1994-1.638 3.2139-3.897 5.7109-6.776 7.4909-2.829 1.78-6.006 2.6701-9.531 2.6701-3.077 0-5.783-.5934-8.116-1.7801-2.283-1.2361-4.12-2.8183-5.51-4.7467v5.8592H354.87V4.28571h10.425V24.0885Zm21.817 14.3885c0-2.4722-.521-4.5984-1.564-6.3784-.993-1.8295-2.333-3.2139-4.021-4.1534-1.638-.9394-3.425-1.4092-5.361-1.4092-1.886 0-3.673.4945-5.361 1.4834-1.638.9394-2.978 2.3239-4.021 4.1534-.993 1.8295-1.489 3.9803-1.489 6.4526 0 2.4722.496 4.6231 1.489 6.4526 1.043 1.8294 2.383 3.2386 4.021 4.2275 1.688.9395 3.475 1.4092 5.361 1.4092 1.936 0 3.723-.4944 5.361-1.4833 1.688-.9889 3.028-2.3981 4.021-4.2276 1.043-1.8295 1.564-4.0051 1.564-6.5268ZM330.309 17.4876c5.064 0 9.134 1.5575 12.212 4.6725 3.127 3.0656 4.691 7.3674 4.691 12.9052v24.1045h-10.425V36.4745c0-3.2139-.819-5.6615-2.457-7.3426-1.638-1.7306-3.872-2.5959-6.701-2.5959-2.83 0-5.089.8653-6.776 2.5959-1.638 1.6811-2.458 4.1287-2.458 7.3426v22.6953h-10.424V36.4745c0-3.2139-.819-5.6615-2.457-7.3426-1.638-1.7306-3.872-2.5959-6.702-2.5959-2.879 0-5.162.8653-6.85 2.5959-1.638 1.6811-2.457 4.1287-2.457 7.3426v22.6953H279.08V18.0809h10.425v4.9692c1.34-1.7305 3.053-3.0903 5.137-4.0792 2.135-.9889 4.468-1.4833 7-1.4833 3.226 0 6.106.6922 8.637 2.0767 2.532 1.335 4.493 3.2633 5.883 5.785 1.34-2.3733 3.276-4.277 5.808-5.7109 2.581-1.4339 5.361-2.1508 8.339-2.1508ZM273.705 37.7354c0 1.4833-.099 2.8183-.298 4.005H243.25c.249 2.9667 1.291 5.2907 3.128 6.9718 1.836 1.6811 4.095 2.5217 6.776 2.5217 3.872 0 6.627-1.6564 8.265-4.9693h11.243c-1.191 3.9557-3.474 7.219-6.85 9.7902-3.376 2.5217-7.521 3.7825-12.435 3.7825-3.971 0-7.545-.8652-10.722-2.5958-3.128-1.7801-5.585-4.277-7.372-7.491-1.737-3.2139-2.606-6.9223-2.606-11.1251 0-4.2523.869-7.9854 2.606-11.1994 1.737-3.2139 4.17-5.6862 7.297-7.4167 3.128-1.7306 6.727-2.5959 10.797-2.5959 3.922 0 7.421.8406 10.499 2.5217 3.127 1.6811 5.535 4.0792 7.223 7.1943 1.737 3.0656 2.606 6.6009 2.606 10.606Zm-10.797-2.9668c-.05-2.67-1.018-4.7961-2.904-6.3784-1.886-1.6317-4.195-2.4475-6.925-2.4475-2.581 0-4.765.7911-6.552 2.3734-1.738 1.5328-2.805 3.6836-3.202 6.4525h19.583ZM213.839 50.9372h17.126v8.2326h-27.55V7.40074h10.424V50.9372ZM176.851 59.689c-4.219 0-8.017-.8653-11.392-2.5959-3.376-1.7305-6.031-4.2028-7.967-7.4168-1.887-3.2633-2.83-7.0706-2.83-11.4218 0-4.3512.943-8.1337 2.83-11.3476 1.936-3.2634 4.591-5.7604 7.967-7.491 3.375-1.7306 7.173-2.5959 11.392-2.5959 4.22 0 8.017.8653 11.393 2.5959 3.376 1.7306 6.007 4.2276 7.893 7.491 1.936 3.2139 2.904 6.9964 2.904 11.3476 0 4.3512-.968 8.1585-2.904 11.4218-1.886 3.214-4.517 5.6863-7.893 7.4168-3.376 1.7306-7.173 2.5959-11.393 2.5959Zm0-14.2402c1.539 0 2.83-.5934 3.872-1.78 1.043-1.2362 1.564-3.0409 1.564-5.4143 0-2.3733-.521-4.1534-1.564-5.3401-1.042-1.2361-2.333-1.8541-3.872-1.8541-1.538 0-2.829.618-3.872 1.8541-1.042 1.1867-1.563 2.9668-1.563 5.3401 0 2.3734.496 4.1781 1.489 5.4143 1.042 1.1866 2.358 1.78 3.946 1.78ZM123.635 16.82c2.73 0 5.088.5687 7.074 1.7059 1.985 1.0878 3.5 2.5959 4.542 4.5242v-5.7109h16.456v41.089c0 3.9061-.72 7.4662-2.159 10.6801-1.44 3.2139-3.773 5.7851-7 7.7134-3.177 1.9284-7.272 2.8926-12.286 2.8926-6.751 0-12.112-1.5823-16.083-4.7467-3.922-3.1151-6.156-7.3674-6.702-12.7569h16.233c.446 2.1756 2.233 3.2634 5.361 3.2634 1.936 0 3.45-.4945 4.542-1.4834 1.092-.9889 1.638-2.8431 1.638-5.5625v-4.9693c-1.042 1.9284-2.557 3.4612-4.542 4.5984-1.986 1.0878-4.344 1.6317-7.074 1.6317-3.276 0-6.23-.8406-8.861-2.5217-2.631-1.7306-4.716-4.2028-6.255-7.4168-1.489-3.2634-2.233-7.0954-2.233-11.496 0-4.4006.744-8.2079 2.233-11.4218 1.539-3.2634 3.624-5.7357 6.255-7.4168 2.631-1.7306 5.585-2.5959 8.861-2.5959Zm11.616 21.4345c0-2.225-.571-3.9556-1.713-5.1917-1.141-1.2362-2.606-1.8542-4.393-1.8542s-3.251.618-4.393 1.8542c-1.142 1.2361-1.713 2.9667-1.713 5.1917 0 2.2251.571 3.9556 1.713 5.1918 1.142 1.2361 2.606 1.8542 4.393 1.8542s3.252-.6181 4.393-1.8542c1.142-1.2362 1.713-2.9667 1.713-5.1918Z" fill="#FFFBF8"/><g clip-path="url(#a)"><path d="M442.781 330.178H59.8689c-3.4118-.004-6.6828-1.364-9.0953-3.781-2.4126-2.417-3.7697-5.695-3.7736-9.113v-150.39c.0039-3.418 1.361-6.696 3.7736-9.113 2.4125-2.417 5.6835-3.777 9.0953-3.781H442.781c3.412.004 6.683 1.364 9.095 3.781 2.413 2.417 3.77 5.695 3.774 9.113v150.39c-.004 3.418-1.361 6.696-3.774 9.113-2.412 2.417-5.683 3.777-9.095 3.781Z" fill="#F2F2F2"/><path d="M353.477 321.954H120.65c-17.35-.019-33.9835-6.934-46.2518-19.227-12.2683-12.292-19.1692-28.959-19.1887-46.344v-28.581c.0195-17.385 6.9204-34.051 19.1887-46.344C86.6664 169.165 103.3 162.25 120.65 162.231h261.351c17.35.019 33.984 6.934 46.252 19.227 12.269 12.293 19.17 28.959 19.189 46.344-.028 24.962-9.937 48.894-27.553 66.544-17.616 17.651-41.5 27.58-66.412 27.608Z" fill="#fff"/><path d="M293.417 205.282H139.516c-.88 0-1.724-.35-2.347-.974-.622-.624-.972-1.47-.972-2.352 0-.881.35-1.727.972-2.351.623-.624 1.467-.974 2.347-.974h153.901c.881 0 1.725.35 2.347.974.623.624.972 1.47.972 2.351 0 .882-.349 1.728-.972 2.352-.622.624-1.466.974-2.347.974ZM371.325 240.763H139.516c-.88 0-1.724-.35-2.347-.974-.622-.624-.972-1.47-.972-2.352 0-.882.35-1.727.972-2.351.623-.624 1.467-.974 2.347-.974h231.809c.88 0 1.724.35 2.347.974.622.624.972 1.469.972 2.351 0 .882-.35 1.728-.972 2.352-.623.624-1.467.974-2.347.974ZM371.325 276.244H139.516c-.88 0-1.724-.351-2.347-.974-.622-.624-.972-1.47-.972-2.352 0-.882.35-1.728.972-2.351.623-.624 1.467-.974 2.347-.974h231.809c.88 0 1.724.35 2.347.974.622.623.972 1.469.972 2.351 0 .882-.35 1.728-.972 2.352-.623.623-1.467.974-2.347.974Z" fill="#E6E6E6"/><path d="M371.325 276.244H139.516c-.88 0-1.724-.351-2.347-.974-.622-.624-.972-1.47-.972-2.352 0-.882.35-1.728.972-2.351.623-.624 1.467-.974 2.347-.974h231.809c.88 0 1.724.35 2.347.974.622.623.972 1.469.972 2.351 0 .882-.35 1.728-.972 2.352-.623.623-1.467.974-2.347.974Z" fill="#E6E6E6"/><path d="M277.177 244.835c.037 1.002.292 1.983.749 2.875.456.892 1.102 1.673 1.892 2.288.79.615 1.705 1.048 2.681 1.27.976.223 1.988.228 2.965.015l12.657 20.805 5.387-11.453-12.845-18.001c-.465-1.622-1.507-3.017-2.93-3.921-1.423-.903-3.126-1.252-4.789-.981-1.662.272-3.167 1.145-4.23 2.454-1.063 1.309-1.61 2.963-1.537 4.649Z" fill="#FFB6B6"/><path d="m372.159 304.461-43.618-23.706-13.758-12.934s-5.981-1.604-3.78-3.553c2.201-1.949-4.072-3.828-4.072-3.828l-7.386-6.943-10.495 7.441 3.038 4.717s-.209 7.81 4.06 6.308c4.27-1.503 3.203 4.974 3.203 4.974l25.486 39.586 47.322-12.062Z" fill="#3F3D56"/><path d="M243.402 282.126c23.53 0 42.605-19.112 42.605-42.689s-19.075-42.69-42.605-42.69c-23.529 0-42.604 19.113-42.604 42.69 0 23.577 19.075 42.689 42.604 42.689Z" fill="#00A6CB"/><path d="M372.294 615.403h-8.859l-4.216-34.237h13.075v34.237Z" fill="#FFB6B6"/><path d="M376.97 630.782h-6.353l-1.134-6.01-2.904 6.01h-16.85c-.807 0-1.594-.259-2.244-.738-.651-.48-1.131-1.155-1.372-1.928-.24-.772-.228-1.602.036-2.367.263-.765.764-1.425 1.428-1.885l13.456-9.311v-6.076l14.152.846 1.785 21.459Z" fill="#2F2E41"/><path d="M301.443 615.403h-8.859l-4.216-34.237h13.075v34.237Z" fill="#FFB6B6"/><path d="M306.119 630.782h-6.353l-1.134-6.01-2.905 6.01h-16.849c-.808 0-1.594-.259-2.245-.738-.65-.48-1.131-1.155-1.371-1.928-.24-.772-.228-1.602.035-2.367.264-.765.764-1.425 1.429-1.885l13.455-9.311v-6.076l14.153.846 1.785 21.459Z" fill="#2F2E41"/><path d="M362.894 356.471h-44.712v51.005h44.712v-51.005Z" fill="#FFB6B6"/><path d="m319.214 381.629-7.566 8.96-13.07 27.57-32.932 78.512-6.965 16.604 5.625 29.352s.91 20.68.91 24.065c0 6.892 5.753 10.711 5.753 10.711l4.221 22.028 40.929-1.723s-1.428-24.281-10.001-30.406c-8.572-6.124-12.512-38.044-12.512-38.044l-4.658-14.162 45.4-53.924.293 18.849.141 9.124s-6.648 59.339 1.102 70.855c7.75 11.516.158 10.161.158 10.161l.369 23.756 48.495.344-10.698-68.392s-5.433-4.298-2.526-8.618c2.906-4.321-2.817-9.612-2.817-9.612l2.567-53.392s-2.843-9.222.501-10.421c3.343-1.199.439-9.13.439-9.13l.497-10.334-9.975-32.05-43.68-10.683Z" fill="#2F2E41"/><path d="m363.582 356.471 4.816-14.474 3.439-4.824 1.376-13.785c0-37.22-8.286-31.022-8.286-31.022l-4.784-13.09-22.012-.689-14.102 13.44-11.693 4.135-4.58 23.842 8.363 25.44 2.064 13.784c-3.937 7.282-3.604 3.838-.344 9.305l38.865 10.684c13.757 4.824 13.757-7.582 10.998-10.684-2.758-3.101-4.12-12.062-4.12-12.062Z" fill="#3F3D56"/><path d="M346.293 273.96c11.27 0 20.406-9.154 20.406-20.447 0-11.292-9.136-20.446-20.406-20.446s-20.406 9.154-20.406 20.446c0 11.293 9.136 20.447 20.406 20.447Z" fill="#FFB6B6"/><path d="M373.536 280.806c.192.325.309.689.341 1.066.032.376-.021.755-.155 1.108-.134.353-.346.672-.62.931-.274.26-.603.454-.963.569-2.737.91-4.423 3.563-6.39 5.686-1.96 2.116-5.118 3.874-7.622 2.433-2.497-1.434-2.669-5.093-4.76-7.078-2.036-1.93-5.42-1.696-7.814-.228l-.072.044c-.413.27-.896.413-1.389.41-.493-.002-.975-.149-1.386-.422-.411-.274-.732-.662-.925-1.117-.193-.455-.249-.957-.16-1.443.839-4.47 1.677-8.939 2.515-13.407-2.202 5.314-5.398 10.157-9.417 14.267-1.107 1.28-2.51 2.269-4.086 2.881-1.431.455-2.82-1.027-4.21-.758 3.453-3.026 15.065-22.421 12.987-35.386-2.442.276-4.884.551-7.326.827-.264-1.158-.829-2.225-1.637-3.095.099 1.127-.044 2.262-.419 3.329-1.018.118-2.043.228-3.061.345-1.417.159-2.958.296-4.176-.448-2.029-1.241-2.091-4.177-1.513-6.493 1.692-6.734 6.824-12.365 13.104-15.315 6.28-2.943 8.137 3.612 14.755 1.517 13.069-4.136 23.085 2.936 26.614 16.059 2.965 11.007.811 22.69-2.215 33.718Z" fill="#2F2E41"/><path d="M430.029 631.227h-24.987l-.107-.196c-.32-.58-.628-1.195-.916-1.827-2.574-5.522-3.662-11.836-4.622-17.407l-.723-4.2c-.087-.508-.021-1.031.19-1.502.211-.471.557-.868.995-1.141.437-.272.946-.407 1.46-.388.515.019 1.012.191 1.429.495 3.797 2.768 7.596 5.534 11.396 8.298 1.439 1.049 3.082 2.263 4.656 3.575.152-.739.311-1.48.47-2.211.109-.505.367-.965.739-1.322.372-.357.842-.595 1.35-.683.508-.088 1.03-.022 1.5.189.471.211.867.558 1.14.997l2.923 4.706c2.132 3.437 4.014 6.824 3.631 10.476.002.045-.002.089-.01.133-.077.6-.219 1.19-.424 1.759l-.09.249Z" fill="#F0F0F0"/><path d="M455.108 631.768 217.67 632c-.237-.001-.464-.096-.631-.265-.168-.168-.261-.396-.261-.633 0-.238.093-.465.261-.634.167-.168.394-.263.631-.264l237.438-.232c.237.001.464.096.631.264.167.169.261.396.261.634 0 .237-.094.465-.261.634-.167.168-.394.263-.631.264Z" fill="#CACACA"/><path d="m239.53 296.894-26.117-22.1c-.893-.757-1.45-1.838-1.548-3.006-.098-1.168.27-2.327 1.023-3.223l4.807-5.703c.756-.895 1.835-1.453 3-1.551 1.166-.098 2.322.27 3.217 1.025l26.117 22.1c.893.757 1.449 1.838 1.548 3.006.098 1.168-.27 2.327-1.024 3.223l-4.807 5.704c-.755.894-1.834 1.452-3 1.55-1.165.099-2.322-.27-3.216-1.025Z" fill="#3F3D56"/><path d="M214.783 269.025c-.406.483-.605 1.107-.552 1.737.053.629.353 1.212.834 1.62l26.117 22.099c.482.407 1.106.606 1.734.553.628-.053 1.209-.354 1.616-.836l4.807-5.703c.406-.483.605-1.108.552-1.737-.053-.629-.353-1.212-.834-1.62l-26.117-22.099c-.482-.407-1.106-.606-1.734-.553-.628.053-1.209.354-1.616.836l-4.807 5.703Z" fill="#fff"/><path d="M230.115 277.616c-.09.127-.209.231-.347.304-.138.073-.291.113-.447.117l-4.103.094c-.132.003-.263-.02-.386-.068-.123-.047-.235-.119-.331-.21-.095-.091-.172-.201-.225-.321-.053-.121-.082-.252-.085-.384-.003-.132.02-.263.068-.386.047-.124.119-.236.21-.332.091-.095.2-.172.32-.225.121-.054.251-.083.383-.086l2.684-.061-2.643-6.99c-.094-.25-.085-.526.024-.769.11-.243.311-.432.56-.527.248-.094.524-.086.767.023.242.109.432.311.527.559l3.146 8.32c.057.151.077.313.059.473-.019.159-.075.313-.165.446l-.016.023Z" fill="#00A6CB"/><path d="M230.642 279.373c.989.145 1.935.507 2.771 1.058.835.552 1.539 1.28 2.063 2.134.524.854.855 1.813.969 2.808.115.996.01 2.005-.307 2.956l19.264 14.869-11.949 4.12-16.462-14.752c-1.559-.639-2.829-1.829-3.571-3.344-.741-1.516-.902-3.251-.452-4.877s1.48-3.031 2.894-3.947c1.414-.917 3.115-1.281 4.78-1.025Z" fill="#FFB6B6"/><path d="m330.937 286.725-49.323 30.386s-19.887-7.373-16.001-10.786c3.887-3.413-8.486-5.72-8.486-5.72l-13.667-9.214-7.932 9.236s1.445 15.002 3.904 12.404c2.459-2.598 6.135 4.498 6.135 4.498s1.086 7.924 8.085 5.93c7-1.994 25.782 18.906 25.782 18.906l60.702-22.685-9.199-32.955Z" fill="#3F3D56"/><path d="M241.904 256.561c-.571 0-1.135-.133-1.647-.389-.511-.257-.956-.629-1.299-1.087l-9.033-12.069c-.291-.388-.502-.829-.622-1.298-.12-.47-.146-.958-.078-1.438.068-.48.23-.942.477-1.359.246-.417.572-.781.959-1.072.782-.587 1.764-.839 2.731-.701.479.069.94.231 1.356.478.416.247.78.574 1.07.962l5.91 7.895 15.179-22.814c.542-.814 1.384-1.38 2.342-1.572.958-.192 1.953.005 2.766.548.812.543 1.377 1.388 1.568 2.347.192.96-.005 1.957-.547 2.771l-18.067 27.155c-.327.491-.766.896-1.281 1.182-.516.286-1.092.444-1.681.46-.034.001-.068.001-.103.001Z" fill="#fff"/></g><defs><clipPath id="a"><path fill="#fff" transform="translate(47 154)" d="M0 0h409v478H0z"/></clipPath></defs></svg>