<svg width="886" height="149" fill="none" xmlns="http://www.w3.org/2000/svg"><path d="M68.5024 84.3821V38.8556h15.7672v30.1347h36.6894v15.3918H68.5024Z" fill="#00A6CB"/><path d="M102.807 24.6868c-7.8128-4.7146-16.9038-7.0719-27.2733-7.0719-10.3694 0-19.7445 2.3573-28.1253 7.0719-8.2387 4.5759-14.7729 11.2319-19.6025 19.9677-4.6876 8.5973-7.0313 18.5812-7.0313 29.9517s2.3437 21.3544 7.0313 29.9518c4.8296 8.597 11.3638 15.253 19.6025 19.968 8.3808 4.576 17.7559 6.863 28.1253 6.863 14.4888 0 26.4213-4.229 35.7963-12.687 9.375-8.459 14.844-19.8988 16.406-34.3199.685-6.3187 0-15.3918 0-15.3918h20.668c.483 3.9118.685 9.0731 0 15.3918-1.067 9.8442-4.972 22.0479-11.506 32.0319-6.534 9.845-15.128 17.679-25.781 23.503-10.654 5.686-22.5149 8.528-35.5833 8.528-13.7785 0-26.3497-3.12-37.7135-9.36-11.3638-6.378-20.3837-15.183-27.06-26.415C4.22607 101.438.958984 88.75.958984 74.6062c0-14.1438 3.267086-26.8317 9.801216-38.0636 6.6763-11.3705 15.6962-20.1757 27.06-26.4156C49.184 3.74838 61.7552.559082 75.5337.559082c15.7673 0 29.6883 3.813288 41.7623 11.439818 3.786 2.3639 7.252 5.0274 10.397 7.9907l-13.828 13.8278c-3.146-3.6116-6.832-6.6552-11.058-9.1306Z" fill="#00A6CB"/><path d="M863.701 43.5005c2.359-3.8451 5.418-6.8601 9.176-9.0449 3.845-2.1847 8.215-3.2771 13.108-3.2771V50.448h-4.85c-5.767 0-10.137 1.3546-13.108 4.0637-2.884 2.7091-4.326 7.4282-4.326 14.1572v36.1791h-18.352V32.2272h18.352v11.2733Zm-107.98 24.7752c0-7.3408 1.442-13.8514 4.326-19.5318 2.972-5.6803 6.948-10.0498 11.929-13.1085 5.069-3.0586 10.705-4.588 16.91-4.588 5.418 0 10.137 1.0924 14.157 3.2772 4.108 2.1847 7.385 4.9375 9.832 8.2583V32.2272h18.483v72.6208h-18.483V94.2306c-2.36 3.4082-5.637 6.2484-9.832 8.5204-4.107 2.185-8.87 3.277-14.288 3.277-6.117 0-11.71-1.573-16.779-4.719-4.981-3.1459-8.957-7.5591-11.929-13.2395-2.884-5.7677-4.326-12.3657-4.326-19.7938Zm57.154.2621c0-4.4569-.874-8.2583-2.622-11.4044-1.748-3.2334-4.107-5.6804-7.079-7.3408-2.971-1.7478-6.161-2.6217-9.569-2.6217-3.408 0-6.554.8302-9.438 2.4906-2.884 1.6605-5.243 4.1074-7.079 7.3408-1.747 3.1461-2.621 6.9038-2.621 11.2734 0 4.3695.874 8.2146 2.621 11.5355 1.836 3.2334 4.195 5.724 7.079 7.4718 2.971 1.7478 6.117 2.6217 9.438 2.6217 3.408 0 6.598-.8302 9.569-2.4906 2.972-1.7478 5.331-4.1947 7.079-7.3408 1.748-3.2334 2.622-7.0786 2.622-11.5355Zm-83.147-25.0373c2.359-3.8451 5.418-6.8601 9.176-9.0449 3.845-2.1847 8.214-3.2771 13.108-3.2771V50.448h-4.85c-5.768 0-10.137 1.3546-13.108 4.0637-2.884 2.7091-4.326 7.4282-4.326 14.1572v36.1791h-18.352V32.2272h18.352v11.2733Zm-84.909-.6554c2.36-3.4956 5.593-6.3358 9.701-8.5205 4.194-2.1848 8.957-3.2772 14.288-3.2772 6.205 0 11.798 1.5294 16.779 4.588 5.068 3.0587 9.045 7.4282 11.929 13.1085 2.971 5.593 4.456 12.1036 4.456 19.5318 0 7.4281-1.485 14.0261-4.456 19.7938-2.884 5.6804-6.861 10.0936-11.929 13.2395-4.981 3.146-10.574 4.719-16.779 4.719-5.418 0-10.181-1.048-14.288-3.146-4.02-2.185-7.254-4.9811-9.701-8.3893v10.3553h-18.352V7.84534h18.352V42.8451Zm38.408 25.4306c0-4.3695-.917-8.1273-2.753-11.2734-1.747-3.2334-4.107-5.6803-7.078-7.3408-2.884-1.6604-6.03-2.4906-9.438-2.4906-3.321 0-6.467.8739-9.438 2.6217-2.884 1.6604-5.244 4.1074-7.079 7.3408-1.748 3.2335-2.622 7.0349-2.622 11.4044s.874 8.171 2.622 11.4045c1.835 3.2334 4.195 5.724 7.079 7.4718 2.971 1.6604 6.117 2.4906 9.438 2.4906 3.408 0 6.554-.8739 9.438-2.6217 2.971-1.7478 5.331-4.2384 7.078-7.4718 1.836-3.2335 2.753-7.0786 2.753-11.5355Zm-99.998-37.0972c8.913 0 16.079 2.7528 21.498 8.2584 5.505 5.4182 8.258 13.0211 8.258 22.8088v42.6023h-18.352V64.7363c0-5.6803-1.442-10.0061-4.326-12.9774-2.884-3.0587-6.816-4.588-11.797-4.588-4.982 0-8.958 1.5293-11.929 4.588-2.884 2.9713-4.326 7.2971-4.326 12.9774v40.1117h-18.352V64.7363c0-5.6803-1.442-10.0061-4.326-12.9774-2.884-3.0587-6.816-4.588-11.797-4.588-5.069 0-9.089 1.5293-12.06 4.588-2.884 2.9713-4.326 7.2971-4.326 12.9774v40.1117h-18.352V32.2272h18.352v8.7827c2.359-3.0586 5.374-5.4619 9.045-7.2097 3.758-1.7478 7.865-2.6217 12.322-2.6217 5.68 0 10.749 1.2235 15.206 3.6704 4.457 2.3595 7.909 5.7677 10.355 10.2246 2.36-4.1947 5.768-7.5592 10.225-10.0935 4.544-2.5343 9.438-3.8015 14.682-3.8015Zm-99.65 35.7863c0 2.6217-.175 4.9812-.524 7.0786h-53.09c.437 5.2434 2.272 9.3508 5.506 12.322 3.233 2.9713 7.21 4.4569 11.929 4.4569 6.816 0 11.666-2.9275 14.55-8.7827h19.794c-2.097 6.9912-6.117 12.759-12.06 17.3033-5.942 4.4571-13.239 6.6851-21.891 6.6851-6.991 0-13.283-1.529-18.876-4.588-5.506-3.1458-9.832-7.559-12.978-13.2394-3.058-5.6803-4.588-12.2346-4.588-19.6628 0-7.5155 1.53-14.1135 4.588-19.7939 3.059-5.6803 7.341-10.0498 12.847-13.1085 5.505-3.0586 11.841-4.588 19.007-4.588 6.904 0 13.065 1.4857 18.483 4.4569 5.506 2.9713 9.744 7.2097 12.715 12.7153 3.059 5.4182 4.588 11.6666 4.588 18.7452Zm-19.007-5.2434c-.088-4.7191-1.792-8.4769-5.112-11.2734-3.321-2.8838-7.385-4.3258-12.191-4.3258-4.545 0-8.39 1.3983-11.536 4.1948-3.059 2.7091-4.937 6.5105-5.637 11.4044h34.476ZM378.189 90.298h30.149v14.55h-48.501V13.3509h18.352V90.298Zm-65.116 15.468c-7.428 0-14.113-1.529-20.056-4.588-5.942-3.0586-10.618-7.4281-14.026-13.1085-3.321-5.7677-4.981-12.4968-4.981-20.1871 0-7.6904 1.66-14.3757 4.981-20.0561 3.408-5.7677 8.084-10.1809 14.026-13.2396 5.943-3.0587 12.628-4.588 20.056-4.588 7.428 0 14.114 1.5293 20.056 4.588 5.943 3.0587 10.574 7.4719 13.895 13.2396 3.408 5.6804 5.113 12.3657 5.113 20.0561 0 7.6903-1.705 14.4194-5.113 20.1871-3.321 5.6804-7.952 10.0499-13.895 13.1085-5.942 3.059-12.628 4.588-20.056 4.588Zm0-25.1683c2.709 0 4.981-1.0487 6.817-3.1461 1.835-2.1847 2.752-5.3745 2.752-9.5692s-.917-7.3408-2.752-9.4382c-1.836-2.1847-4.108-3.2771-6.817-3.2771-2.709 0-4.981 1.0924-6.816 3.2771-1.836 2.0974-2.753 5.2435-2.753 9.4382s.874 7.3845 2.622 9.5692c1.835 2.0974 4.151 3.1461 6.947 3.1461Zm-93.685-50.599c4.807 0 8.958 1.005 12.453 3.015 3.496 1.9226 6.161 4.588 7.996 7.9962V30.9163h28.97v72.6217c0 6.903-1.267 13.196-3.801 18.876-2.535 5.68-6.642 10.225-12.322 13.633-5.593 3.408-12.803 5.112-21.629 5.112-11.885 0-21.324-2.796-28.315-8.389-6.904-5.506-10.836-13.022-11.797-22.547h28.576c.787 3.845 3.933 5.768 9.438 5.768 3.409 0 6.074-.874 7.997-2.622 1.922-1.748 2.883-5.025 2.883-9.831v-8.7831c-1.835 3.4082-4.5 6.1171-7.996 8.1271-3.495 1.923-7.646 2.884-12.453 2.884-5.768 0-10.967-1.486-15.599-4.457-4.632-3.0585-8.302-7.428-11.011-13.1084-2.622-5.7678-3.933-12.5405-3.933-20.3182 0-7.7777 1.311-14.5068 3.933-20.1872 2.709-5.7677 6.379-10.1372 11.011-13.1085 4.632-3.0587 9.831-4.588 15.599-4.588Zm20.449 37.8837c0-3.9326-1.005-6.9912-3.015-9.176-2.01-2.1848-4.588-3.2771-7.734-3.2771s-5.724 1.0923-7.734 3.2771-3.015 5.2434-3.015 9.176c0 3.9325 1.005 6.9912 3.015 9.1759 2.01 2.1848 4.588 3.2772 7.734 3.2772s5.724-1.0924 7.734-3.2772c2.01-2.1847 3.015-5.2434 3.015-9.1759Z" fill="#003459"/></svg>