<svg width="1280" height="231" viewBox="0 0 1280 231" fill="none" xmlns="http://www.w3.org/2000/svg">
<path d="M105.168 130.516V106.551V59.6295H129.719V106.551H186.846V130.516H129.719H105.168Z" fill="#FFFBF8"/>
<path d="M158.582 37.568C146.417 30.2271 132.262 26.5567 116.116 26.5567C99.9707 26.5567 85.3732 30.2271 72.3239 37.568C59.4958 44.6929 49.3218 55.0565 41.8019 68.6587C34.5032 82.045 30.8538 97.5904 30.8538 115.295C30.8538 132.999 34.5032 148.545 41.8019 161.931C49.3218 175.317 59.4958 185.681 72.3239 193.022C85.3732 200.147 99.9707 203.709 116.116 203.709C138.676 203.709 157.255 197.124 171.852 183.954C186.45 170.783 194.965 152.971 197.398 130.516C198.464 120.678 197.398 106.551 197.398 106.551H229.579C230.332 112.642 230.645 120.678 229.579 130.516C227.918 145.844 221.838 164.846 211.664 180.391C201.49 195.72 188.109 207.919 171.52 216.987C154.932 225.84 136.464 230.266 116.116 230.266C94.6625 230.266 75.0886 225.408 57.3947 215.692C39.7007 205.76 25.6562 192.05 15.261 174.562C5.08701 157.073 0 137.317 0 115.295C0 93.2722 5.08701 73.5166 15.261 56.0281C25.6562 38.3237 39.7007 24.6135 57.3947 14.8976C75.0886 4.96588 94.6625 0 116.116 0C140.667 0 162.342 5.93747 181.142 17.8124C187.037 21.493 192.433 25.6403 197.33 30.2542L175.799 51.7848C170.902 46.1613 165.162 41.4223 158.582 37.568Z" fill="#00A6CB"/>
<path d="M1247.19 71.086C1250.57 65.5767 1254.95 61.257 1260.33 58.1267C1265.84 54.9964 1272.1 53.4313 1279.11 53.4313V81.0403H1272.16C1263.9 81.0403 1257.64 82.981 1253.38 86.8626C1249.25 90.7441 1247.19 97.5055 1247.19 107.147V158.984H1220.89V54.9338H1247.19V71.086Z" fill="#FFFBF8"/>
<path d="M1092.47 106.583C1092.47 96.0656 1094.54 86.7374 1098.67 78.5987C1102.93 70.46 1108.63 64.1994 1115.76 59.817C1123.03 55.4347 1131.1 53.2435 1139.99 53.2435C1147.75 53.2435 1154.52 54.8086 1160.28 57.9389C1166.16 61.0691 1170.86 65.0133 1174.36 69.7713V54.9338H1200.84V158.984H1174.36V143.771C1170.98 148.654 1166.29 152.724 1160.28 155.979C1154.39 159.109 1147.57 160.674 1139.8 160.674C1131.04 160.674 1123.03 158.421 1115.76 153.913C1108.63 149.405 1102.93 143.082 1098.67 134.944C1094.54 126.68 1092.47 117.226 1092.47 106.583ZM1174.36 106.959C1174.36 100.573 1173.11 95.1265 1170.61 90.6189C1168.1 85.9861 1164.72 82.4802 1160.46 80.1012C1156.21 77.597 1151.64 76.3449 1146.75 76.3449C1141.87 76.3449 1137.36 77.5344 1133.23 79.9134C1129.1 82.2924 1125.72 85.7983 1123.09 90.4311C1120.58 94.9387 1119.33 100.323 1119.33 106.583C1119.33 112.844 1120.58 118.353 1123.09 123.111C1125.72 127.744 1129.1 131.312 1133.23 133.817C1137.49 136.321 1142 137.573 1146.75 137.573C1151.64 137.573 1156.21 136.384 1160.46 134.005C1164.72 131.5 1168.1 127.994 1170.61 123.487C1173.11 118.854 1174.36 113.345 1174.36 106.959Z" fill="#FFFBF8"/>
<path d="M1055.23 71.086C1058.61 65.5767 1062.99 61.257 1068.38 58.1267C1073.89 54.9964 1080.15 53.4313 1087.16 53.4313V81.0403H1080.21C1071.95 81.0403 1065.69 82.981 1061.43 86.8626C1057.3 90.7441 1055.23 97.5055 1055.23 107.147V158.984H1028.94V54.9338H1055.23V71.086Z" fill="#FFFBF8"/>
<path d="M933.576 70.147C936.957 65.1385 941.589 61.0692 947.474 57.9389C953.484 54.8086 960.308 53.2435 967.946 53.2435C976.836 53.2435 984.85 55.4347 991.987 59.8171C999.249 64.1994 1004.95 70.46 1009.08 78.5987C1013.34 86.6122 1015.46 95.9404 1015.46 106.583C1015.46 117.226 1013.34 126.68 1009.08 134.944C1004.95 143.082 999.249 149.405 991.987 153.913C984.85 158.421 976.836 160.674 967.946 160.674C960.183 160.674 953.359 159.172 947.474 156.167C941.715 153.037 937.082 149.03 933.576 144.147V158.984H907.282V20H933.576V70.147ZM988.606 106.583C988.606 100.323 987.291 94.9387 984.662 90.4311C982.158 85.7983 978.777 82.2924 974.52 79.9134C970.388 77.5344 965.88 76.3449 960.997 76.3449C956.239 76.3449 951.731 77.597 947.474 80.1012C943.342 82.4802 939.962 85.9861 937.332 90.6189C934.828 95.2517 933.576 100.698 933.576 106.959C933.576 113.219 934.828 118.666 937.332 123.299C939.962 127.932 943.342 131.5 947.474 134.005C951.731 136.384 956.239 137.573 960.997 137.573C965.88 137.573 970.388 136.321 974.52 133.817C978.777 131.312 982.158 127.744 984.662 123.111C987.291 118.478 988.606 112.969 988.606 106.583Z" fill="#FFFBF8"/>
<path d="M845.33 53.4313C858.102 53.4313 868.369 57.3754 876.132 65.2637C884.02 73.0268 887.964 83.9201 887.964 97.9437V158.984H861.67V101.512C861.67 93.3736 859.604 87.1756 855.472 82.9184C851.34 78.5361 845.706 76.3449 838.569 76.3449C831.432 76.3449 825.735 78.5361 821.477 82.9184C817.345 87.1756 815.279 93.3736 815.279 101.512V158.984H788.985V101.512C788.985 93.3736 786.919 87.1756 782.787 82.9184C778.655 78.5361 773.021 76.3449 765.884 76.3449C758.622 76.3449 752.862 78.5361 748.605 82.9184C744.473 87.1756 742.407 93.3736 742.407 101.512V158.984H716.112V54.9338H742.407V67.5175C745.787 63.1351 750.107 59.6918 755.366 57.1876C760.75 54.6834 766.635 53.4313 773.021 53.4313C781.16 53.4313 788.422 55.1842 794.807 58.6901C801.193 62.0708 806.139 66.9541 809.645 73.3398C813.026 67.3297 817.909 62.5091 824.295 58.8779C830.806 55.2468 837.817 53.4313 845.33 53.4313Z" fill="#FFFBF8"/>
<path d="M702.555 104.705C702.555 108.461 702.304 111.842 701.803 114.847H625.738C626.364 122.36 628.993 128.245 633.626 132.502C638.259 136.759 643.956 138.888 650.717 138.888C660.484 138.888 667.433 134.693 671.565 126.304H699.925C696.92 136.321 691.16 144.585 682.646 151.096C674.132 157.482 663.677 160.674 651.281 160.674C641.264 160.674 632.249 158.483 624.235 154.101C616.347 149.593 610.149 143.27 605.641 135.131C601.259 126.993 599.068 117.602 599.068 106.959C599.068 96.1908 601.259 86.7374 605.641 78.5987C610.024 70.46 616.159 64.1994 624.047 59.817C631.936 55.4347 641.013 53.2435 651.281 53.2435C661.172 53.2435 670 55.3721 677.763 59.6292C685.651 63.8864 691.724 69.9591 695.981 77.8474C700.363 85.6105 702.555 94.5631 702.555 104.705ZM675.321 97.1925C675.196 90.4311 672.754 85.047 667.996 81.0403C663.238 76.9083 657.416 74.8424 650.529 74.8424C644.018 74.8424 638.509 76.8457 634.002 80.8525C629.619 84.734 626.927 90.1807 625.925 97.1925H675.321Z" fill="#FFFBF8"/>
<path d="M551.553 138.136H594.751V158.984H525.259V27.8882H551.553V138.136Z" fill="#FFFBF8"/>
<path d="M458.257 160.299C447.614 160.299 438.035 158.108 429.521 153.725C421.007 149.343 414.308 143.082 409.425 134.944C404.667 126.68 402.288 117.038 402.288 106.02C402.288 95.0013 404.667 85.4226 409.425 77.2839C414.308 69.02 421.007 62.6969 429.521 58.3145C438.035 53.9321 447.614 51.7409 458.257 51.7409C468.9 51.7409 478.478 53.9321 486.993 58.3145C495.507 62.6969 502.143 69.02 506.901 77.2839C511.784 85.4226 514.226 95.0013 514.226 106.02C514.226 117.038 511.784 126.68 506.901 134.944C502.143 143.082 495.507 149.343 486.993 153.725C478.478 158.108 468.9 160.299 458.257 160.299ZM458.257 124.238C462.138 124.238 465.394 122.735 468.023 119.73C470.653 116.6 471.967 112.03 471.967 106.02C471.967 100.01 470.653 95.5021 468.023 92.4971C465.394 89.3668 462.138 87.8017 458.257 87.8017C454.375 87.8017 451.12 89.3668 448.49 92.4971C445.861 95.5021 444.546 100.01 444.546 106.02C444.546 112.03 445.798 116.6 448.303 119.73C450.932 122.735 454.25 124.238 458.257 124.238Z" fill="#00A6CB"/>
<path d="M324.027 51.7409C330.913 51.7409 336.861 53.1808 341.869 56.0607C346.878 58.8153 350.697 62.6343 353.326 67.5175V53.0556H394.834V157.106C394.834 166.998 393.018 176.013 389.387 184.151C385.756 192.29 379.871 198.801 371.732 203.684C363.719 208.568 353.389 211.009 340.742 211.009C323.714 211.009 310.191 207.002 300.174 198.989C290.282 191.101 284.648 180.332 283.271 166.685H324.215C325.342 172.194 329.849 174.948 337.737 174.948C342.621 174.948 346.44 173.696 349.194 171.192C351.949 168.688 353.326 163.992 353.326 157.106V144.522C350.697 149.405 346.878 153.287 341.869 156.167C336.861 158.921 330.913 160.299 324.027 160.299C315.763 160.299 308.313 158.17 301.677 153.913C295.041 149.531 289.782 143.27 285.9 135.131C282.144 126.867 280.266 117.164 280.266 106.02C280.266 94.8761 282.144 85.2348 285.9 77.0961C289.782 68.8322 295.041 62.5717 301.677 58.3145C308.313 53.9321 315.763 51.7409 324.027 51.7409ZM353.326 106.02C353.326 100.385 351.886 96.003 349.006 92.8727C346.127 89.7424 342.433 88.1773 337.925 88.1773C333.418 88.1773 329.724 89.7424 326.844 92.8727C323.964 96.003 322.524 100.385 322.524 106.02C322.524 111.654 323.964 116.037 326.844 119.167C329.724 122.297 333.418 123.862 337.925 123.862C342.433 123.862 346.127 122.297 349.006 119.167C351.886 116.037 353.326 111.654 353.326 106.02Z" fill="#00A6CB"/>
</svg>