<svg width="1279" height="231" viewBox="0 0 1279 231" fill="none" xmlns="http://www.w3.org/2000/svg">
<path d="M105.168 130.516V106.551V59.6295H129.719V106.551H186.846V130.516H129.719H105.168Z" fill="#003459"/>
<path d="M158.582 37.568C146.417 30.2271 132.262 26.5567 116.116 26.5567C99.9707 26.5567 85.3732 30.2271 72.3239 37.568C59.4958 44.6929 49.3218 55.0565 41.8019 68.6587C34.5032 82.045 30.8538 97.5904 30.8538 115.295C30.8538 132.999 34.5032 148.545 41.8019 161.931C49.3218 175.317 59.4958 185.681 72.3239 193.022C85.3732 200.147 99.9707 203.709 116.116 203.709C138.676 203.709 157.255 197.124 171.852 183.954C186.45 170.783 194.965 152.971 197.398 130.516C198.464 120.678 197.398 106.551 197.398 106.551H229.579C230.332 112.642 230.645 120.678 229.579 130.516C227.918 145.844 221.838 164.846 211.664 180.391C201.49 195.72 188.109 207.919 171.52 216.987C154.932 225.84 136.464 230.266 116.116 230.266C94.6625 230.266 75.0886 225.408 57.3947 215.692C39.7007 205.76 25.6562 192.05 15.261 174.562C5.08701 157.073 0 137.317 0 115.295C0 93.2722 5.08701 73.5166 15.261 56.0281C25.6562 38.3237 39.7007 24.6135 57.3947 14.8976C75.0886 4.96588 94.6625 0 116.116 0C140.667 0 162.342 5.93747 181.142 17.8124C187.037 21.493 192.433 25.6403 197.33 30.2542L175.799 51.7848C170.902 46.1613 165.162 41.4223 158.582 37.568Z" fill="#00A6CB"/>
<path d="M1246.92 71.086C1250.3 65.5767 1254.68 61.257 1260.07 58.1267C1265.58 54.9964 1271.84 53.4313 1278.85 53.4313V81.0403H1271.9C1263.64 81.0403 1257.37 82.981 1253.12 86.8626C1248.99 90.7441 1246.92 97.5055 1246.92 107.147V158.984H1220.63V54.9338H1246.92V71.086Z" fill="#003459"/>
<path d="M1092.21 106.583C1092.21 96.0656 1094.27 86.7374 1098.41 78.5987C1102.66 70.46 1108.36 64.1994 1115.5 59.817C1122.76 55.4347 1130.84 53.2435 1139.73 53.2435C1147.49 53.2435 1154.25 54.8086 1160.01 57.9389C1165.9 61.0691 1170.59 65.0133 1174.1 69.7713V54.9338H1200.58V158.984H1174.1V143.771C1170.72 148.654 1166.02 152.724 1160.01 155.979C1154.13 159.109 1147.3 160.674 1139.54 160.674C1130.77 160.674 1122.76 158.421 1115.5 153.913C1108.36 149.405 1102.66 143.082 1098.41 134.944C1094.27 126.68 1092.21 117.226 1092.21 106.583ZM1174.1 106.959C1174.1 100.573 1172.84 95.1265 1170.34 90.6189C1167.84 85.9861 1164.46 82.4802 1160.2 80.1012C1155.94 77.597 1151.37 76.3449 1146.49 76.3449C1141.6 76.3449 1137.1 77.5344 1132.96 79.9134C1128.83 82.2924 1125.45 85.7983 1122.82 90.4311C1120.32 94.9387 1119.07 100.323 1119.07 106.583C1119.07 112.844 1120.32 118.353 1122.82 123.111C1125.45 127.744 1128.83 131.312 1132.96 133.817C1137.22 136.321 1141.73 137.573 1146.49 137.573C1151.37 137.573 1155.94 136.384 1160.2 134.005C1164.46 131.5 1167.84 127.994 1170.34 123.487C1172.84 118.854 1174.1 113.345 1174.1 106.959Z" fill="#003459"/>
<path d="M1054.97 71.086C1058.35 65.5767 1062.73 61.257 1068.11 58.1267C1073.62 54.9964 1079.88 53.4313 1086.89 53.4313V81.0403H1079.94C1071.68 81.0403 1065.42 82.981 1061.16 86.8626C1057.03 90.7441 1054.97 97.5055 1054.97 107.147V158.984H1028.67V54.9338H1054.97V71.086Z" fill="#003459"/>
<path d="M933.31 70.147C936.691 65.1385 941.324 61.0692 947.209 57.9389C953.219 54.8086 960.043 53.2435 967.681 53.2435C976.571 53.2435 984.584 55.4347 991.721 59.8171C998.983 64.1994 1004.68 70.46 1008.81 78.5987C1013.07 86.6122 1015.2 95.9404 1015.2 106.583C1015.2 117.226 1013.07 126.68 1008.81 134.944C1004.68 143.082 998.983 149.405 991.721 153.913C984.584 158.421 976.571 160.674 967.681 160.674C959.918 160.674 953.094 159.172 947.209 156.167C941.449 153.037 936.816 149.03 933.31 144.147V158.984H907.016V20H933.31V70.147ZM988.34 106.583C988.34 100.323 987.026 94.9387 984.396 90.4311C981.892 85.7983 978.511 82.2924 974.254 79.9134C970.122 77.5344 965.615 76.3449 960.731 76.3449C955.973 76.3449 951.466 77.597 947.209 80.1012C943.077 82.4802 939.696 85.9861 937.067 90.6189C934.562 95.2517 933.31 100.698 933.31 106.959C933.31 113.219 934.562 118.666 937.067 123.299C939.696 127.932 943.077 131.5 947.209 134.005C951.466 136.384 955.973 137.573 960.731 137.573C965.615 137.573 970.122 136.321 974.254 133.817C978.511 131.312 981.892 127.744 984.396 123.111C987.026 118.478 988.34 112.969 988.34 106.583Z" fill="#003459"/>
<path d="M845.064 53.4313C857.836 53.4313 868.103 57.3754 875.866 65.2637C883.755 73.0268 887.699 83.9201 887.699 97.9437V158.984H861.404V101.512C861.404 93.3736 859.339 87.1756 855.207 82.9184C851.075 78.5361 845.44 76.3449 838.303 76.3449C831.166 76.3449 825.469 78.5361 821.212 82.9184C817.08 87.1756 815.014 93.3736 815.014 101.512V158.984H788.72V101.512C788.72 93.3736 786.654 87.1756 782.522 82.9184C778.39 78.5361 772.755 76.3449 765.618 76.3449C758.356 76.3449 752.596 78.5361 748.339 82.9184C744.207 87.1756 742.141 93.3736 742.141 101.512V158.984H715.847V54.9338H742.141V67.5175C745.522 63.1351 749.842 59.6918 755.1 57.1876C760.485 54.6834 766.369 53.4313 772.755 53.4313C780.894 53.4313 788.156 55.1842 794.542 58.6901C800.928 62.0708 805.873 66.9541 809.379 73.3398C812.76 67.3297 817.643 62.5091 824.029 58.8779C830.54 55.2468 837.552 53.4313 845.064 53.4313Z" fill="#003459"/>
<path d="M702.289 104.705C702.289 108.461 702.038 111.842 701.538 114.847H625.472C626.098 122.36 628.727 128.245 633.36 132.502C637.993 136.759 643.69 138.888 650.452 138.888C660.218 138.888 667.167 134.693 671.299 126.304H699.659C696.654 136.321 690.895 144.585 682.38 151.096C673.866 157.482 663.411 160.674 651.015 160.674C640.998 160.674 631.983 158.483 623.969 154.101C616.081 149.593 609.883 143.27 605.376 135.131C600.993 126.993 598.802 117.602 598.802 106.959C598.802 96.1908 600.993 86.7374 605.376 78.5987C609.758 70.46 615.893 64.1994 623.782 59.817C631.67 55.4347 640.748 53.2435 651.015 53.2435C660.907 53.2435 669.734 55.3721 677.497 59.6292C685.385 63.8864 691.458 69.9591 695.715 77.8474C700.098 85.6105 702.289 94.5631 702.289 104.705ZM675.056 97.1925C674.93 90.4311 672.489 85.047 667.731 81.0403C662.973 76.9083 657.15 74.8424 650.264 74.8424C643.753 74.8424 638.243 76.8457 633.736 80.8525C629.354 84.734 626.661 90.1807 625.66 97.1925H675.056Z" fill="#003459"/>
<path d="M551.287 138.136H594.485V158.984H524.993V27.8882H551.287V138.136Z" fill="#003459"/>
<path d="M457.991 160.299C447.348 160.299 437.77 158.108 429.255 153.725C420.741 149.343 414.042 143.082 409.159 134.944C404.401 126.68 402.022 117.038 402.022 106.02C402.022 95.0013 404.401 85.4226 409.159 77.2839C414.042 69.02 420.741 62.6969 429.255 58.3145C437.77 53.9321 447.348 51.7409 457.991 51.7409C468.634 51.7409 478.213 53.9321 486.727 58.3145C495.241 62.6969 501.878 69.02 506.636 77.2839C511.519 85.4226 513.96 95.0013 513.96 106.02C513.96 117.038 511.519 126.68 506.636 134.944C501.878 143.082 495.241 149.343 486.727 153.725C478.213 158.108 468.634 160.299 457.991 160.299ZM457.991 124.238C461.873 124.238 465.128 122.735 467.758 119.73C470.387 116.6 471.702 112.03 471.702 106.02C471.702 100.01 470.387 95.5021 467.758 92.4971C465.128 89.3668 461.873 87.8017 457.991 87.8017C454.11 87.8017 450.854 89.3668 448.225 92.4971C445.595 95.5021 444.281 100.01 444.281 106.02C444.281 112.03 445.533 116.6 448.037 119.73C450.666 122.735 453.984 124.238 457.991 124.238Z" fill="#00A6CB"/>
<path d="M323.761 51.7409C330.648 51.7409 336.595 53.1808 341.604 56.0607C346.612 58.8153 350.431 62.6343 353.061 67.5175V53.0556H394.568V157.106C394.568 166.998 392.752 176.013 389.121 184.151C385.49 192.29 379.605 198.801 371.467 203.684C363.453 208.568 353.123 211.009 340.477 211.009C323.448 211.009 309.925 207.002 299.909 198.989C290.017 191.101 284.382 180.332 283.005 166.685H323.949C325.076 172.194 329.584 174.948 337.472 174.948C342.355 174.948 346.174 173.696 348.929 171.192C351.683 168.688 353.061 163.992 353.061 157.106V144.522C350.431 149.405 346.612 153.287 341.604 156.167C336.595 158.921 330.648 160.299 323.761 160.299C315.497 160.299 308.047 158.17 301.411 153.913C294.775 149.531 289.516 143.27 285.634 135.131C281.878 126.867 280 117.164 280 106.02C280 94.8761 281.878 85.2348 285.634 77.0961C289.516 68.8322 294.775 62.5717 301.411 58.3145C308.047 53.9321 315.497 51.7409 323.761 51.7409ZM353.061 106.02C353.061 100.385 351.621 96.003 348.741 92.8727C345.861 89.7424 342.167 88.1773 337.66 88.1773C333.152 88.1773 329.458 89.7424 326.578 92.8727C323.699 96.003 322.259 100.385 322.259 106.02C322.259 111.654 323.699 116.037 326.578 119.167C329.458 122.297 333.152 123.862 337.66 123.862C342.167 123.862 345.861 122.297 348.741 119.167C351.621 116.037 353.061 111.654 353.061 106.02Z" fill="#00A6CB"/>
</svg>
