<svg width="128" height="128" fill="none" xmlns="http://www.w3.org/2000/svg"><path d="M64 106.667h.0533M45.333 87.6209c4.9848-4.886 11.6866-7.6229 18.6667-7.6229 6.98 0 13.6819 2.7369 18.6666 7.6229M26.667 68.581c7.5628-7.4138 17.1616-12.4081 27.5733-14.3466M101.333 68.5817c-3.2114-3.148-6.8079-5.8773-10.7041-8.1227M10.667 47.0403c6.5952-5.8982 14.1231-10.6616 22.2773-14.096M117.334 47.0402c-8.135-7.2757-17.6728-12.8099-28.0261-16.2622-10.3534-3.4524-21.3036-4.7498-32.177-3.8125M10.667 10.667l106.667 106.667" stroke="#00A6CB" stroke-width="4" stroke-linecap="round" stroke-linejoin="round"/></svg>